<?xml version="1.0" encoding="UTF-8"?>
<svg id="Layer_2" data-name="Layer 2" xmlns="http://www.w3.org/2000/svg" xmlns:xlink="http://www.w3.org/1999/xlink" viewBox="0 0 472.55 472.55">
  <defs>
    <style>
      .cls-1 {
        fill: #fff;
      }

      .cls-2, .cls-3 {
        fill: none;
      }

      .cls-4 {
        opacity: .9;
      }

      .cls-5 {
        clip-path: url(#clippath-1);
      }

      .cls-3 {
        stroke: #fff;
        stroke-miterlimit: 10;
        stroke-width: 2.61px;
      }

      .cls-6 {
        clip-path: url(#clippath);
      }
    </style>
    <clipPath id="clippath">
      <rect class="cls-2" width="472.55" height="472.55"/>
    </clipPath>
    <clipPath id="clippath-1">
      <rect class="cls-2" x="1" y="1" width="470.55" height="470.55"/>
    </clipPath>
  </defs>
  <g id="Layer_1-2" data-name="Layer 1">
    <g class="cls-4">
      <g class="cls-6">
        <g class="cls-5">
          <circle class="cls-3" cx="236.28" cy="236.28" r="231.36" transform="translate(-97.87 236.28) rotate(-45)"/>
          <path class="cls-1" d="M62.55,335.59c-30.77-57.87-34.8-130.79-3.23-189.22,6.56,4.13,12.24,9.6,18.73,13.83,12.05,7.85,42.89,20.85,47.95,33.52,4.44,11.11-.45,36.04.34,49.8.38,6.52,1.68,15.71,2.83,22.24,2.88,16.29,14.29,32.31-3.22,43.84-11.52,7.58-42.93,19.52-56.92,24.54-1.5.54-5.41,2.24-6.49,1.45M79.99,191.51c-7.1,30.76-7.73,63.89,1.6,94.3.74,2.42,3.1,11.65,5.23,11.97,2.69.4,7.5-3.71,7.84-6.75.58-5.25-6.02-25.94-7-33.86-2.38-19.22-1.03-38.21,2.12-57.26-1.47-4.83-5.25-7.01-9.78-8.41"/>
          <path class="cls-1" d="M405.76,138.86c5.38,20.95,8.59,42.82,7.52,64.55-.32,6.44-2.71,15.02-2.6,21.31.19,10.72,5.72,26.29,6.43,38.82,1.34,23.52-1.89,50.53-10.71,72.12l-29.3-22.11c5.2-21.49,6.31-43.67,3.6-65.62l-8.12,37.62c-.93,2.88-6.81,18.65-8.13,19.48-3.09,1.93-14.1-4.24-18.17-5.72-5.47-1.99-11.19-4.02-16.94-5,16.77-39.78,14.03-84.29-6.22-122.14l35.06-12.71,10.62,20.8,9.4,30.06c3.64-19.06-.72-38.93-4.42-57.72l31.99-13.73Z"/>
          <path class="cls-1" d="M163.94,103.77l16.2,5.71c4.14,2.95,6.8,7.51,7.49,12.56.99,7.18-.67,26.16-3.05,33.08-2.31,6.72-7.22,11.48-14.09,13.49-18.99,5.55-55.06-9.01-72.11-18.72-4.12-2.35-27.57-17.9-28.29-20.68-.8-3.06,7.54-13,9.91-16.02,13.76-17.6,32.37-33.68,51.75-44.76,14.47-8.26,53.96-29.1,57.23.84,2.12,19.44-4.97,32.01-25.06,34.49M147.52,77.55l-10.87,1.42-6.54,19.77c14.7,2.42,17.89-8.89,17.41-21.18M138.7,116.46l-13.61-2.68-6.27,27.58c20.07,7.14,18.84-10.61,19.88-24.9"/>
          <path class="cls-1" d="M374.45,96.22l-39.17-6.24c-2.35-1.3-3.18-12.6-6.61-16.26-1.24-1.32-7.32-4.05-8.63-3.73-2.75.67-2.01,5.76-1.83,7.91,1.02,12.22,5.73,36.69,9.01,48.68,1.41,5.16,1.37,6.82,7.66,5.97,12.96-1.76,9.11-13.13,5.82-21.99l-8.81.72-2.54-13.77c13.07,1.03,27.86.11,40.7,1.27,14.05,1.27,18.07,11.55,25.72,21.88-.35,1.57-26.27,13.06-29.12,13.63-3.47.7-4.94-2.2-7.6-1.54-1.18.29-14.92,11.95-19.62,14.32-23.34,11.76-58.74,18.45-62.69-16.38-1.7-15.03-3.72-44.37-2.57-58.95.6-7.55,1.26-12.85,7.95-17.12,19.36-12.35,45.23,5.8,61.41,16.77,10.46,7.09,22.34,15.78,30.93,24.83"/>
          <path class="cls-1" d="M325.58,246.67c-1.22,18.85-2.57,32.47-22.83,37.96-13.97,3.79-59.48,3.78-69.72-7.43-4.32-4.73-5.66-14.81-6.43-21.15-1.33-11.06-2.63-29.08-2.64-40.09,0-3.3.92-8.63,2.35-11.56,8.4-17.23,56.26-24.25,73.27-21.37,19.39,3.28,23.8,25.8,24.74,42.33l-41.34,2.49c-1.55-8.32-.51-35.28-15.06-28.19-5.57,2.71-.39,22.96,0,28.85.93,14.3.56,28.77,1.49,43.02,16.82,7.65,14.2-14.64,14.82-24.85h41.35Z"/>
          <path class="cls-1" d="M257.74,168.77c-17.54,4.07-35.74,5.57-53.72,5.19l7.7-131.47c2.08-1.68,39.45-2.26,42.43-.81,1.05.51,1.92,1.65,2.25,2.77l1.34,124.32Z"/>
          <path class="cls-1" d="M210.3,192.76v17.55h-26.32l-1.26,20.06c2.47,2.47,23.8-4.34,27.57.62v19.43l-25.07,1.25,2.45,21.77,30.14-1.71,1.24,16.29-60.75,12.6c-4.05-.37-8.83-16.15-10.02-20.12-8.93-29.57-9.47-61.69-.47-91.34,20.84,1.85,41.44,4.88,62.49,3.59"/>
          <path class="cls-1" d="M227.84,305.6c1.23-1.94,40.56-3.57,45.08,1.91,10.24,7.64,8.65,37.59,4.71,48.54-1.49,4.15-4.93,8.59-9.7,8.49-.2,3.53,3.78,3.31,6.08,7.07,7.07,11.59-2.96,41.87-1.22,56.06-1.31,3.84-14.9,2.82-18.63,4.54-2.12-2.48,5.06-49.22,1.06-56.22l-4.82-.19-2.51,56.42h-20.05v-126.62ZM251.65,326.91v25.7c0,.16-2.43,3.06.62,3.1.46,0,4.61-2.83,5.03-3.72.47-.98,2.03-14.92,1.98-16.94-.12-5.28-1.65-9.1-7.63-8.15"/>
          <path class="cls-1" d="M316.8,353.23c-1.66-1.64,7.67-28.14-1.83-25.03-1.29.42-1.94,2.65-2.34,3.93l-10.85,73.75c5.26,1.03,6.11-4.8,7.15-8.51.72-2.58,3.57-16.6,2.86-17.81l-3.72-.65,2.49-15.63,23.8,1.25c1.89,1.81-12.22,48.35-14.34,50.21-.47.41-6.84,3.42-7.65,3.64-3.54.99-.67-4.21-2.44-4.96-11.79,19.84-28.49,15.32-28.31-8.15.14-17.32,3.95-46.09,6.53-63.78,2.8-19.12,9.6-42.23,34.55-32.38,19.39,7.66,21.34,27.9,14.77,45.45l-20.66-1.32Z"/>
          <path class="cls-1" d="M180.22,424.7c-1.16,1.15-13.92-3.09-15.63-5.04-5.25-5.98-10.4-30.73-15.71-38.83-2.38-.31-.63,2.24-.41,3.54,1.81,10.6,4.83,20.97,6.68,31.55l-14.34-6.32c-7.83-25.04-16.8-50.33-20.59-76.27l18.6-6.4,17.58,37.59-5.09-41.87c3.06-.9,17.9-7.27,19.55-4.57l9.35,106.62Z"/>
          <path class="cls-1" d="M220.32,306.85v25.07l-14.24,1.43c-4.55,1.44,1.04,19.02-.81,23.65h13.79s0,23.81,0,23.81h-13.79s1.25,26.33,1.25,26.33h15.04s0,25.07,0,25.07l-33.67-5.18-7.52-111.88c.21-1.16,1.08-1.35,1.95-1.8,7.75-4.04,28.67-5.12,37.98-6.51"/>
          <path class="cls-1" d="M364.44,358.25l14.56-18.64,16.73,13c-11.35,7.06-22.64,14.74-31.33,25.04-9.04,10.72-12.37,23.57-27.53,28.24-1.06-1.29,8.34-20.28,9.35-23.85,2.05-7.24,2.84-19.08,3.22-26.87.53-11.03-.5-22.24-.05-33.27l19.39,9.94-4.35,26.41Z"/>
          <path class="cls-1" d="M115.02,351.93l-12.49,2.56,3.84,12.51c13.8-4.4,13.06.58,17.47,11.29-1.46,1.05-12.47-2.02-11.26,1.87.21.69,5.83,9.64,6.3,10,2.88,2.2,9.91,1.93,12.55,5,2.24,2.6,2.4,8.9,4.94,11.97-.75.7-7.26-3.63-8.67-4.48-15.66-9.47-29.97-21.92-42.1-35.61-2.09-2.35-9.75-11.23-10.51-13.32-.73-2.02,4.82-3.62,6.55-4.47,9.38-4.59,19.63-7.72,29.06-12.23l4.31,14.91Z"/>
        </g>
      </g>
    </g>
  </g>
</svg>